<?xml version="1.0" encoding="UTF-8" standalone="no"?>
<!-- Created with Inkscape (http://www.inkscape.org/) -->

<svg
   xmlns:dc="http://purl.org/dc/elements/1.1/"
   xmlns:cc="http://creativecommons.org/ns#"
   xmlns:rdf="http://www.w3.org/1999/02/22-rdf-syntax-ns#"
   xmlns:svg="http://www.w3.org/2000/svg"
   xmlns="http://www.w3.org/2000/svg"
   xmlns:sodipodi="http://sodipodi.sourceforge.net/DTD/sodipodi-0.dtd"
   xmlns:inkscape="http://www.inkscape.org/namespaces/inkscape"
   width="744.09448819"
   height="1052.3622047"
   id="svg2"
   version="1.1"
   inkscape:version="0.48.2 r9819"
   sodipodi:docname="morsekey copy.svg">
  <defs
     id="defs4" />
  <sodipodi:namedview
     id="base"
     pagecolor="#ffffff"
     bordercolor="#666666"
     borderopacity="1.0"
     inkscape:pageopacity="0.0"
     inkscape:pageshadow="2"
     inkscape:zoom="1"
     inkscape:cx="242.79828"
     inkscape:cy="635.15873"
     inkscape:document-units="px"
     inkscape:current-layer="layer1"
     showgrid="false"
     inkscape:window-width="1374"
     inkscape:window-height="851"
     inkscape:window-x="53"
     inkscape:window-y="0"
     inkscape:window-maximized="0"
     showguides="true"
     inkscape:guide-bbox="true" />
  <metadata
     id="metadata7">
    <rdf:RDF>
      <cc:Work
         rdf:about="">
        <dc:format>image/svg+xml</dc:format>
        <dc:type
           rdf:resource="http://purl.org/dc/dcmitype/StillImage" />
        <dc:title />
      </cc:Work>
    </rdf:RDF>
  </metadata>
  <g
     inkscape:label="Layer 1"
     inkscape:groupmode="layer"
     id="layer1">
    <path
       style="fill:#9a8041;fill-opacity:1;stroke:none"
       d="m 177,579.36218 41,-0.66667 c 0,0 10.03745,0.0599 20.38951,-4.91011 C 242.97627,571.58329 250,565.36218 250,565.36218 l 50,2 5,5 39,-1 3,-7 30,0 c 0,0 9.68582,15.09797 19.66667,19.33333 C 414.46655,591.24887 458,588.36218 458,588.36218 l 13,0 -1,10 -15,0 -3,-4 -75,2 0,-4 -41,-1 -7,-4 -20,0 -1,9 -130.66667,-0.66667 z"
       id="path3843"
       inkscape:connector-curvature="0"
       sodipodi:nodetypes="ccsccccccsccccccccccccc" />
    <path
       style="fill:none;stroke:#261915;stroke-width:2.27876472;stroke-linecap:butt;stroke-linejoin:miter;stroke-miterlimit:4;stroke-opacity:1;stroke-dasharray:none"
       d="m 314.66667,597.36218 c 42.21797,3.80675 -11.05459,8.22188 4.66666,8.22188 9.96334,0 19.04472,6.6783 4.66667,8.65462 -9.55669,1.3136 -22.65726,0 7.66667,1.29819"
       id="path3891"
       inkscape:connector-curvature="0"
       sodipodi:nodetypes="cssc" />
    <path
       style="fill:#261915;fill-opacity:1;stroke:none"
       d="m 449.33333,587.02885 c 0,0 -2.29801,-9.01918 -5,-12.66667 -3.29501,-4.44802 -10.53509,-5.3769 -13,-10.33333 -2.07861,-4.17966 -2.94406,-10.13035 -0.33333,-14 6.17499,-9.15264 19.96062,-11.84944 31,-11.66667 9.86191,0.16328 21.76994,3.18885 27.33333,11.33334 3.00893,4.4049 2.75976,11.24929 0.33334,16 -2.3973,4.69369 -9.73509,4.86259 -13,9 -2.65867,3.36916 -4.66667,12 -4.66667,12 l -5,-0.33334 0,3.33334 -14,-0.33334 0,-3 z"
       id="path3877"
       inkscape:connector-curvature="0"
       sodipodi:nodetypes="cssssssscccccc" />
    <rect
       style="fill:#5c240d;fill-opacity:1;stroke:none"
       id="rect3837"
       width="315"
       height="33"
       x="134.00009"
       y="639.19556" />
    <rect
       style="fill:#9a8041;fill-opacity:1;stroke:none"
       id="rect3839"
       width="227"
       height="23.666668"
       x="180.00009"
       y="615.52881" />
    <rect
       y="558.69556"
       x="243"
       height="61.666668"
       width="50"
       id="rect3841"
       style="fill:#9a8041;fill-opacity:1;stroke:none" />
    <path
       style="fill:#261915;fill-opacity:1;stroke:none"
       d="m 361,590.02885 7,-0.33333 -1.66667,5.33333 -5.33333,0 z"
       id="path3879"
       inkscape:connector-curvature="0" />
    <path
       style="fill:#261915;fill-opacity:1;stroke:none"
       d="m 195,594.69552 1.66667,7 2.66666,0 2,-8.33334 z"
       id="path3883"
       inkscape:connector-curvature="0" />
    <path
       style="fill:#261915;fill-opacity:1;stroke:none"
       d="m 320,585.36218 0.33333,6.66667 -6.66666,0 5.66666,6.33333 8.66667,0.66667 -0.66667,-4.33333 6,0 -4,-4 -4.33333,0 0,-5.33334 z"
       id="path3893"
       inkscape:connector-curvature="0" />
    <rect
       y="556.36218"
       x="194.33334"
       height="8"
       width="6.6666665"
       id="rect3847"
       style="fill:#9a8041;fill-opacity:1;stroke:none" />
    <path
       style="fill:#9a8041;fill-opacity:1;stroke:none"
       d="m 183.16667,551.02885 3.33333,-4.66667 22.66667,0 3,4.33334 0,6 -2.33333,2 -24,0 -2.66667,-2 z"
       id="path3853"
       inkscape:connector-curvature="0" />
    <path
       inkscape:connector-curvature="0"
       id="path3855"
       d="m 179.33334,568.38021 4.21456,-6.68469 28.65901,0 3.7931,6.20722 0,8.59458 -2.95019,2.86487 -30.34483,0 -3.37165,-2.86487 z"
       style="fill:#9a8041;fill-opacity:1;stroke:none" />
    <rect
       style="fill:#9a8041;fill-opacity:1;stroke:none"
       id="rect3857"
       width="6.6666665"
       height="8"
       x="320"
       y="549.69556" />
    <path
       inkscape:connector-curvature="0"
       id="path3859"
       d="m 308.83334,544.36218 3.33333,-4.66667 22.66667,0 3,4.33334 0,6 -2.33333,2 -24,0 -2.66667,-2 z"
       style="fill:#9a8041;fill-opacity:1;stroke:none" />
    <path
       style="fill:#9a8041;fill-opacity:1;stroke:none"
       d="m 305.00001,561.71354 4.21456,-6.68469 28.65901,0 3.7931,6.20722 0,8.59458 -2.95019,2.86487 -30.34483,0 -3.37165,-2.86487 z"
       id="path3861"
       inkscape:connector-curvature="0" />
    <rect
       style="fill:#9a8041;fill-opacity:1;stroke:none"
       id="rect3863"
       width="5.3333335"
       height="18.666664"
       x="343"
       y="597.6955" />
    <path
       style="fill:#261915;fill-opacity:1;stroke:#000000;stroke-width:1px;stroke-linecap:butt;stroke-linejoin:miter;stroke-opacity:1"
       d="m 359.33333,596.36218 8,-0.33333 2,4.66667 -11,-0.33334 z"
       id="path3881"
       inkscape:connector-curvature="0" />
    <rect
       y="599.02881"
       x="336"
       height="2.6666641"
       width="42.666668"
       id="rect3865"
       style="fill:#9a8041;fill-opacity:1;stroke:none" />
    <g
       id="g3873"
       transform="matrix(-1,0,0,1,566.66667,262)">
      <rect
         style="fill:#9a8041;fill-opacity:1;stroke:none"
         id="rect3869"
         width="5.3333335"
         height="18.666664"
         x="343"
         y="337.6955" />
      <rect
         y="339.02884"
         x="336"
         height="2.6666641"
         width="42.666668"
         id="rect3871"
         style="fill:#9a8041;fill-opacity:1;stroke:none" />
    </g>
    <path
       sodipodi:type="arc"
       style="fill:none;stroke:#261915;stroke-opacity:1"
       id="path3885"
       sodipodi:cx="273.66666"
       sodipodi:cy="327.02884"
       sodipodi:rx="15"
       sodipodi:ry="15"
       d="m 288.66666,327.02884 a 15,15 0 1 1 -30,0 15,15 0 1 1 30,0 z"
       transform="translate(-2.6666667,259.33333)" />
    <path
       style="fill:none;stroke:#261915;stroke-width:1px;stroke-linecap:butt;stroke-linejoin:miter;stroke-opacity:1"
       d="m 242.88889,585.91774 12.66666,0"
       id="path3887"
       inkscape:connector-curvature="0" />
    <path
       sodipodi:nodetypes="cssc"
       inkscape:connector-curvature="0"
       id="path3914"
       d="m 314.66667,797.36218 c 42.21797,3.80675 -11.05459,8.22188 4.66666,8.22188 9.96334,0 19.04472,6.6783 4.66667,8.65462 -9.55669,1.3136 -22.65726,0 7.66667,1.29819"
       style="fill:none;stroke:#261915;stroke-width:2.27876472;stroke-linecap:butt;stroke-linejoin:miter;stroke-miterlimit:4;stroke-opacity:1;stroke-dasharray:none"
       inkscape:export-filename="/Users/zar/Desktop/morse_off.png"
       inkscape:export-xdpi="125.58895"
       inkscape:export-ydpi="125.58895" />
    <path
       sodipodi:nodetypes="cssssssscccccc"
       inkscape:connector-curvature="0"
       id="path3916"
       d="m 449.33333,787.02885 c 0,0 -2.29801,-9.01918 -5,-12.66667 -3.29501,-4.44802 -10.53509,-5.3769 -13,-10.33333 -2.07861,-4.17966 -2.94406,-10.13035 -0.33333,-14 6.17499,-9.15264 19.96062,-11.84944 31,-11.66667 9.86191,0.16328 21.76994,3.18885 27.33333,11.33334 3.00893,4.4049 2.75976,11.24929 0.33334,16 -2.3973,4.69369 -9.73509,4.86259 -13,9 -2.65867,3.36916 -4.66667,12 -4.66667,12 l -5,-0.33334 0,3.33334 -14,-0.33334 0,-3 z"
       style="fill:#261915;fill-opacity:1;stroke:none"
       inkscape:export-filename="/Users/zar/Desktop/morse_off.png"
       inkscape:export-xdpi="125.58895"
       inkscape:export-ydpi="125.58895" />
    <rect
       y="839.36218"
       x="134.00009"
       height="33"
       width="315"
       id="rect3918"
       style="fill:#5c240d;fill-opacity:1;stroke:none"
       inkscape:export-filename="/Users/zar/Desktop/morse_off.png"
       inkscape:export-xdpi="125.58895"
       inkscape:export-ydpi="125.58895" />
    <rect
       y="816.36218"
       x="180.00009"
       height="23"
       width="227"
       id="rect3920"
       style="fill:#9a8041;fill-opacity:1;stroke:none"
       inkscape:export-filename="/Users/zar/Desktop/morse_off.png"
       inkscape:export-xdpi="125.58895"
       inkscape:export-ydpi="125.58895" />
    <path
       inkscape:connector-curvature="0"
       id="path3924"
       d="M 359.83333,789.86218 368,789.69552 l -1.66667,5.33333 -5.33333,0 z"
       style="fill:#261915;fill-opacity:1;stroke:none"
       sodipodi:nodetypes="ccccc"
       inkscape:export-filename="/Users/zar/Desktop/morse_off.png"
       inkscape:export-xdpi="125.58895"
       inkscape:export-ydpi="125.58895" />
    <path
       inkscape:connector-curvature="0"
       id="path3926"
       d="m 195,794.69552 1.66667,7 2.66666,0 2,-8.33334 z"
       style="fill:#261915;fill-opacity:1;stroke:none"
       inkscape:export-filename="/Users/zar/Desktop/morse_off.png"
       inkscape:export-xdpi="125.58895"
       inkscape:export-ydpi="125.58895" />
    <path
       inkscape:connector-curvature="0"
       id="path3928"
       d="m 320,785.36218 0.33333,6.66667 -6.66666,0 5.66666,6.33333 8.66667,0.66667 -0.66667,-4.33333 6,0 -4,-4 -4.33333,0 0,-5.33334 z"
       style="fill:#261915;fill-opacity:1;stroke:none"
       inkscape:export-filename="/Users/zar/Desktop/morse_off.png"
       inkscape:export-xdpi="125.58895"
       inkscape:export-ydpi="125.58895" />
    <path
       style="fill:#9a8041;fill-opacity:1;stroke:none"
       d="m 179.33334,768.38021 4.21456,-6.68469 28.65901,0 3.7931,6.20722 0,8.59458 -2.95019,2.86487 -30.34483,0 -3.37165,-2.86487 z"
       id="path3936"
       inkscape:connector-curvature="0"
       inkscape:export-filename="/Users/zar/Desktop/morse_off.png"
       inkscape:export-xdpi="125.58895"
       inkscape:export-ydpi="125.58895" />
    <path
       inkscape:connector-curvature="0"
       id="path3942"
       d="m 305.00001,761.71354 4.21456,-6.68469 28.65901,0 3.7931,6.20722 0,8.59458 -2.95019,2.86487 -30.34483,0 -3.37165,-2.86487 z"
       style="fill:#9a8041;fill-opacity:1;stroke:none"
       inkscape:export-filename="/Users/zar/Desktop/morse_off.png"
       inkscape:export-xdpi="125.58895"
       inkscape:export-ydpi="125.58895" />
    <path
       sodipodi:nodetypes="ccsccccccsccccccccccccc"
       inkscape:connector-curvature="0"
       id="path3930"
       d="m 177,779.36218 41,-0.66667 c 0,0 10.03745,0.0599 20.38951,-4.91011 C 242.97627,771.58329 250,765.36218 250,765.36218 l 50,2 5,5 39,-1 3,-7 30,0 c 0,0 9.68582,15.09797 19.66667,19.33333 C 414.46655,791.24887 458,788.36218 458,788.36218 l 13,0 -1,10 -15,0 -3,-4 -75,2 0,-4 -41,-1 -7,-4 -20,0 -1,9 -130.66667,-0.66667 z"
       style="fill:#8b733b;fill-opacity:1;stroke:none"
       inkscape:export-filename="/Users/zar/Desktop/morse_off.png"
       inkscape:export-xdpi="125.58895"
       inkscape:export-ydpi="125.58895" />
    <rect
       style="fill:#9a8041;fill-opacity:1;stroke:none"
       id="rect3922"
       width="50"
       height="61.666668"
       x="243"
       y="758.69556"
       inkscape:export-filename="/Users/zar/Desktop/morse_off.png"
       inkscape:export-xdpi="125.58895"
       inkscape:export-ydpi="125.58895" />
    <rect
       style="fill:#9a8041;fill-opacity:1;stroke:none"
       id="rect3932"
       width="6.6666665"
       height="8"
       x="194.33334"
       y="756.36218"
       inkscape:export-filename="/Users/zar/Desktop/morse_off.png"
       inkscape:export-xdpi="125.58895"
       inkscape:export-ydpi="125.58895" />
    <path
       inkscape:connector-curvature="0"
       id="path3934"
       d="m 183.16667,751.02885 3.33333,-4.66667 22.66667,0 3,4.33334 0,6 -2.33333,2 -24,0 -2.66667,-2 z"
       style="fill:#9a8041;fill-opacity:1;stroke:none"
       inkscape:export-filename="/Users/zar/Desktop/morse_off.png"
       inkscape:export-xdpi="125.58895"
       inkscape:export-ydpi="125.58895" />
    <rect
       y="749.69556"
       x="320"
       height="8"
       width="6.6666665"
       id="rect3938"
       style="fill:#9a8041;fill-opacity:1;stroke:none"
       inkscape:export-filename="/Users/zar/Desktop/morse_off.png"
       inkscape:export-xdpi="125.58895"
       inkscape:export-ydpi="125.58895" />
    <path
       style="fill:#9a8041;fill-opacity:1;stroke:none"
       d="m 308.83334,744.36218 3.33333,-4.66667 22.66667,0 3,4.33334 0,6 -2.33333,2 -24,0 -2.66667,-2 z"
       id="path3940"
       inkscape:connector-curvature="0"
       inkscape:export-filename="/Users/zar/Desktop/morse_off.png"
       inkscape:export-xdpi="125.58895"
       inkscape:export-ydpi="125.58895" />
    <rect
       y="797.6955"
       x="343"
       height="18.666664"
       width="5.3333335"
       id="rect3944"
       style="fill:#9a8041;fill-opacity:1;stroke:none"
       inkscape:export-filename="/Users/zar/Desktop/morse_off.png"
       inkscape:export-xdpi="125.58895"
       inkscape:export-ydpi="125.58895" />
    <path
       inkscape:connector-curvature="0"
       id="path3946"
       d="m 359,796.69551 8.5,-0.16666 1.83333,4.16667 -11,-0.33334 z"
       style="fill:#261915;fill-opacity:1;stroke:#000000;stroke-width:1px;stroke-linecap:butt;stroke-linejoin:miter;stroke-opacity:1"
       sodipodi:nodetypes="ccccc"
       inkscape:export-filename="/Users/zar/Desktop/morse_off.png"
       inkscape:export-xdpi="125.58895"
       inkscape:export-ydpi="125.58895" />
    <rect
       style="fill:#9a8041;fill-opacity:1;stroke:none"
       id="rect3948"
       width="42.666668"
       height="2.6666641"
       x="336"
       y="799.02881"
       inkscape:export-filename="/Users/zar/Desktop/morse_off.png"
       inkscape:export-xdpi="125.58895"
       inkscape:export-ydpi="125.58895" />
    <g
       transform="matrix(-1,0,0,1,566.66667,462)"
       id="g3950"
       inkscape:export-filename="/Users/zar/Desktop/morse_off.png"
       inkscape:export-xdpi="125.58895"
       inkscape:export-ydpi="125.58895">
      <rect
         y="337.6955"
         x="343"
         height="18.666664"
         width="5.3333335"
         id="rect3952"
         style="fill:#9a8041;fill-opacity:1;stroke:none" />
      <rect
         style="fill:#9a8041;fill-opacity:1;stroke:none"
         id="rect3954"
         width="42.666668"
         height="2.6666641"
         x="336"
         y="339.02884" />
    </g>
    <path
       transform="translate(-2.6666667,459.33333)"
       d="m 288.66666,327.02884 a 15,15 0 1 1 -30,0 15,15 0 1 1 30,0 z"
       sodipodi:ry="15"
       sodipodi:rx="15"
       sodipodi:cy="327.02884"
       sodipodi:cx="273.66666"
       id="path3956"
       style="fill:none;stroke:#261915;stroke-opacity:1"
       sodipodi:type="arc"
       inkscape:export-filename="/Users/zar/Desktop/morse_off.png"
       inkscape:export-xdpi="125.58895"
       inkscape:export-ydpi="125.58895" />
    <path
       inkscape:connector-curvature="0"
       id="path3958"
       d="m 242.88889,785.91774 12.66666,0"
       style="fill:none;stroke:#261915;stroke-width:1px;stroke-linecap:butt;stroke-linejoin:miter;stroke-opacity:1"
       inkscape:export-filename="/Users/zar/Desktop/morse_off.png"
       inkscape:export-xdpi="125.58895"
       inkscape:export-ydpi="125.58895" />
    <path
       style="opacity:0.2;fill:#ffffff;fill-opacity:1;stroke:none"
       d="m 184.5,755.23718 c 0.21207,-1.2564 0.0454,-3.49814 0.75,-4.75 2.46567,-4.3805 8.30626,-4.11251 8.5,-1.5 -0.10786,0.21573 -6.38077,1.83718 -7,2.25 -1.04311,0.69541 -1.72168,3.24527 -2.25,4 z"
       id="path3978"
       inkscape:connector-curvature="0"
       sodipodi:nodetypes="cscsc"
       inkscape:export-filename="/Users/zar/Desktop/morse_off.png"
       inkscape:export-xdpi="125.58895"
       inkscape:export-ydpi="125.58895" />
    <path
       sodipodi:nodetypes="cscsc"
       inkscape:connector-curvature="0"
       id="path3996"
       d="m 181.58853,774.18595 c 0.22808,-1.6472 -0.512,-3.21947 -0.20283,-4.97748 1.18638,-6.74595 12.09345,-8.28051 10.01645,-3.21657 -0.116,0.28283 -6.72786,2.40863 -7.39382,2.94985 -1.12183,0.91172 -1.85161,4.25471 -2.4198,5.2442 z"
       style="opacity:0.2;fill:#ffffff;fill-opacity:1;stroke:none"
       inkscape:export-filename="/Users/zar/Desktop/morse_off.png"
       inkscape:export-xdpi="125.58895"
       inkscape:export-ydpi="125.58895" />
    <path
       sodipodi:nodetypes="cscsc"
       inkscape:connector-curvature="0"
       id="path4006"
       d="m 310.75,748.73718 c 0.21207,-1.2564 0.0454,-3.49814 0.75,-4.75 2.46567,-4.3805 8.30626,-4.11251 8.5,-1.5 -0.10786,0.21573 -6.38077,1.83718 -7,2.25 -1.04311,0.69541 -1.72168,3.24527 -2.25,4 z"
       style="opacity:0.2;fill:#ffffff;fill-opacity:1;stroke:none"
       inkscape:export-filename="/Users/zar/Desktop/morse_off.png"
       inkscape:export-xdpi="125.58895"
       inkscape:export-ydpi="125.58895" />
    <path
       style="opacity:0.2;fill:#ffffff;fill-opacity:1;stroke:none"
       d="m 307.33853,767.31095 c 0.22808,-1.6472 -0.512,-3.21947 -0.20283,-4.97748 1.18638,-6.74595 12.09345,-8.28051 10.01645,-3.21657 -0.116,0.28283 -6.72786,2.40863 -7.39382,2.94985 -1.12183,0.91172 -1.85161,4.25471 -2.4198,5.2442 z"
       id="path4008"
       inkscape:connector-curvature="0"
       sodipodi:nodetypes="cscsc"
       inkscape:export-filename="/Users/zar/Desktop/morse_off.png"
       inkscape:export-xdpi="125.58895"
       inkscape:export-ydpi="125.58895" />
    <path
       style="fill:#ffffff;stroke:none;stroke-width:1px;stroke-linecap:butt;stroke-linejoin:miter;stroke-opacity:1;fill-opacity:1;opacity:0.2"
       d="m 244.75,765.98718 c -0.94354,-8.50608 4.63781,-5.625 11.625,-5.625 11.00617,0 22.20365,0.125 33.125,0.125 2.125,0 -4.25,0 -6.375,0 -4.40012,0 -8.42502,1.25 -12.875,1.25 -6.2087,0 -12.16805,0.58988 -18.625,0.125 -5.86201,-0.42205 -6.53155,8.58982 -6.875,4.125 z"
       id="path4010"
       inkscape:connector-curvature="0"
       sodipodi:nodetypes="csssssc"
       inkscape:export-filename="/Users/zar/Desktop/morse_off.png"
       inkscape:export-xdpi="125.58895"
       inkscape:export-ydpi="125.58895" />
    <path
       sodipodi:nodetypes="csssssc"
       inkscape:connector-curvature="0"
       id="path4012"
       d="m 181,821.94681 c -1.70716,-7.53037 21.13723,-4.08463 58.24511,-4.58463 54.9029,-0.73977 110.77017,0.27966 165.25489,0.27966 10.60126,0 -21.20251,0 -31.80377,0 -21.95144,0 -42.78097,1.54658 -64.98115,1.54658 -30.97413,0 -83.52371,0.17397 -115.6669,2.52966 -10.99455,0.80576 -11.33477,15.46772 -11.04818,0.22873 z"
       style="opacity:0.2;fill:#ffffff;fill-opacity:1;stroke:none"
       inkscape:export-filename="/Users/zar/Desktop/morse_off.png"
       inkscape:export-xdpi="125.58895"
       inkscape:export-ydpi="125.58895" />
    <path
       style="opacity:0.2;fill:#ffffff;fill-opacity:1;stroke:none"
       d="m 432.25,753.86218 c -0.0459,-7.35351 12.76645,-10.44161 18,-11.75 21.75983,-5.43995 -17.89119,29.17237 -18,11.75 z"
       id="path4014"
       inkscape:connector-curvature="0"
       sodipodi:nodetypes="sss"
       inkscape:export-filename="/Users/zar/Desktop/morse_off.png"
       inkscape:export-xdpi="125.58895"
       inkscape:export-ydpi="125.58895" />
    <path
       style="opacity:0.2;fill:#ffffff;fill-opacity:1;stroke:none"
       d="m 257.85714,786.71932 c -0.14469,-5.4674 1.93278,-7.8813 5,-10.92857 3.60211,-3.57868 14.21462,-2.28631 13,-2.07143 -9.69009,1.71429 -15.17227,5.09329 -18,13 z"
       id="path4016"
       inkscape:connector-curvature="0"
       sodipodi:nodetypes="cssc"
       inkscape:export-filename="/Users/zar/Desktop/morse_off.png"
       inkscape:export-xdpi="125.58895"
       inkscape:export-ydpi="125.58895" />
    <path
       sodipodi:nodetypes="csssscc"
       inkscape:connector-curvature="0"
       id="path4018"
       d="m 346.32143,769.75231 c 1.16963,-6.20666 5.23649,-4.10441 10.32771,-4.10441 8.01966,0 16.17872,0.0912 24.13657,0.0912 1.54839,0 -3.09676,0 -4.64515,0 -3.20615,0 -6.1389,0.91209 -9.38138,0.91209 -4.52398,0 -8.86627,0.43042 -13.57113,0.0912 -8.56331,0.30221 -6.26094,8.79261 -6.86662,3.00992 z"
       style="opacity:0.2;fill:#ffffff;fill-opacity:1;stroke:none"
       inkscape:export-filename="/Users/zar/Desktop/morse_off.png"
       inkscape:export-xdpi="125.58895"
       inkscape:export-ydpi="125.58895" />
    <path
       sodipodi:nodetypes="csssssc"
       inkscape:connector-curvature="0"
       id="path4020"
       d="m 177.89286,786.55861 c -0.94354,-8.50608 4.63781,-5.625 11.625,-5.625 11.00617,0 22.20365,0.125 33.125,0.125 2.125,0 -4.25,0 -6.375,0 -4.40012,0 -8.42502,1.25 -12.875,1.25 -6.2087,0 -12.16805,0.58988 -18.625,0.125 -5.86201,-0.42205 -6.53155,8.58982 -6.875,4.125 z"
       style="opacity:0.2;fill:#ffffff;fill-opacity:1;stroke:none"
       inkscape:export-filename="/Users/zar/Desktop/morse_off.png"
       inkscape:export-xdpi="125.58895"
       inkscape:export-ydpi="125.58895" />
    <path
       style="fill:none;stroke:#261915;stroke-width:2.27876472;stroke-linecap:butt;stroke-linejoin:miter;stroke-miterlimit:4;stroke-opacity:1;stroke-dasharray:none"
       d="m 314.66667,1057.3622 c 42.21797,3.8067 -11.05459,8.2219 4.66666,8.2219 9.96334,0 19.04472,6.6783 4.66667,8.6546 -9.55669,1.3136 -22.65726,0 7.66667,1.2982"
       id="path4022"
       inkscape:connector-curvature="0"
       sodipodi:nodetypes="cssc"
       inkscape:export-filename="/Users/zar/Desktop/morse_on.png"
       inkscape:export-xdpi="125.58895"
       inkscape:export-ydpi="125.58895" />
    <rect
       style="fill:#5c240d;fill-opacity:1;stroke:none"
       id="rect4026"
       width="315"
       height="33"
       x="134.00009"
       y="1099.3622"
       inkscape:export-filename="/Users/zar/Desktop/morse_on.png"
       inkscape:export-xdpi="125.58895"
       inkscape:export-ydpi="125.58895" />
    <rect
       style="fill:#9a8041;fill-opacity:1;stroke:none"
       id="rect4028"
       width="227"
       height="23"
       x="180.00009"
       y="1076.3622"
       inkscape:export-filename="/Users/zar/Desktop/morse_on.png"
       inkscape:export-xdpi="125.58895"
       inkscape:export-ydpi="125.58895" />
    <g
       id="g4088"
       transform="matrix(0.99965732,0.02617695,-0.02617695,0.99965732,27.077445,-7.3975043)"
       inkscape:export-filename="/Users/zar/Desktop/morse_on.png"
       inkscape:export-xdpi="125.58895"
       inkscape:export-ydpi="125.58895">
      <path
         sodipodi:nodetypes="cssssssscccccc"
         inkscape:connector-curvature="0"
         id="path4024"
         d="m 449.33333,1047.0289 c 0,0 -2.29801,-9.0192 -5,-12.6667 -3.29501,-4.448 -10.53509,-5.3769 -13,-10.3334 -2.07861,-4.1796 -2.94406,-10.1303 -0.33333,-13.9999 6.17499,-9.1527 19.96062,-11.84949 31,-11.66672 9.86191,0.16328 21.76994,3.18882 27.33333,11.33332 3.00893,4.4049 2.75976,11.2493 0.33334,16 -2.3973,4.6937 -9.73509,4.8626 -13,9 -2.65867,3.3692 -4.66667,12 -4.66667,12 l -5,-0.3333 0,3.3333 -14,-0.3333 0,-3 z"
         style="fill:#261915;fill-opacity:1;stroke:none" />
      <path
         inkscape:connector-curvature="0"
         id="path4030"
         d="m 359.83333,1049.8622 8.16667,-0.1667 -1.66667,5.3334 -5.33333,0 z"
         style="fill:#261915;fill-opacity:1;stroke:none"
         sodipodi:nodetypes="ccccc" />
      <path
         inkscape:connector-curvature="0"
         id="path4032"
         d="m 195,1054.6955 1.66667,7 2.66666,0 2,-8.3333 z"
         style="fill:#261915;fill-opacity:1;stroke:none" />
      <path
         inkscape:connector-curvature="0"
         id="path4034"
         d="m 320,1045.3622 0.33333,6.6666 -6.66666,0 5.66666,6.3334 8.66667,0.6666 -0.66667,-4.3333 6,0 -4,-4 -4.33333,0 0,-5.3333 z"
         style="fill:#261915;fill-opacity:1;stroke:none" />
      <path
         style="fill:#9a8041;fill-opacity:1;stroke:none"
         d="m 179.33334,1028.3802 4.21456,-6.6847 28.65901,0 3.7931,6.2072 0,8.5946 -2.95019,2.8649 -30.34483,0 -3.37165,-2.8649 z"
         id="path4036"
         inkscape:connector-curvature="0" />
      <path
         inkscape:connector-curvature="0"
         id="path4038"
         d="m 305.00001,1021.7135 4.21456,-6.6847 28.65901,0 3.7931,6.2073 0,8.5945 -2.95019,2.8649 -30.34483,0 -3.37165,-2.8649 z"
         style="fill:#9a8041;fill-opacity:1;stroke:none" />
      <path
         sodipodi:nodetypes="ccsccccccsccccccccccccc"
         inkscape:connector-curvature="0"
         id="path4040"
         d="m 177,1039.3622 41,-0.6667 c 0,0 10.03745,0.06 20.38951,-4.9101 4.58676,-2.2021 11.61049,-8.4232 11.61049,-8.4232 l 50,2 5,5 39,-1 3,-7 30,0 c 0,0 9.68582,15.0979 19.66667,19.3333 17.79988,7.5534 61.33333,4.6667 61.33333,4.6667 l 13,0 -1,10 -15,0 -3,-4 -75,2 0,-4 -41,-1 -7,-4 -20,0 -1,9 -130.66667,-0.6667 z"
         style="fill:#8b733b;fill-opacity:1;stroke:none" />
      <rect
         style="fill:#9a8041;fill-opacity:1;stroke:none"
         id="rect4044"
         width="6.6666665"
         height="8"
         x="194.33334"
         y="1016.3622" />
      <path
         inkscape:connector-curvature="0"
         id="path4046"
         d="m 183.16667,1011.0289 3.33333,-4.6667 22.66667,0 3,4.3333 0,6 -2.33333,2 -24,0 -2.66667,-2 z"
         style="fill:#9a8041;fill-opacity:1;stroke:none" />
      <rect
         y="1009.6956"
         x="320"
         height="8"
         width="6.6666665"
         id="rect4048"
         style="fill:#9a8041;fill-opacity:1;stroke:none" />
      <path
         style="fill:#9a8041;fill-opacity:1;stroke:none"
         d="m 308.83334,1004.3622 3.33333,-4.66669 22.66667,0 3,4.33339 0,6 -2.33333,2 -24,0 -2.66667,-2 z"
         id="path4050"
         inkscape:connector-curvature="0" />
      <path
         style="opacity:0.2;fill:#ffffff;fill-opacity:1;stroke:none"
         d="m 184.5,1015.2372 c 0.21207,-1.2564 0.0454,-3.4982 0.75,-4.75 2.46567,-4.3805 8.30626,-4.1125 8.5,-1.5 -0.10786,0.2157 -6.38077,1.8372 -7,2.25 -1.04311,0.6954 -1.72168,3.2452 -2.25,4 z"
         id="path4068"
         inkscape:connector-curvature="0"
         sodipodi:nodetypes="cscsc" />
      <path
         sodipodi:nodetypes="cscsc"
         inkscape:connector-curvature="0"
         id="path4070"
         d="m 181.58853,1034.186 c 0.22808,-1.6472 -0.512,-3.2195 -0.20283,-4.9775 1.18638,-6.746 12.09345,-8.2805 10.01645,-3.2166 -0.116,0.2828 -6.72786,2.4086 -7.39382,2.9498 -1.12183,0.9118 -1.85161,4.2548 -2.4198,5.2442 z"
         style="opacity:0.2;fill:#ffffff;fill-opacity:1;stroke:none" />
      <path
         sodipodi:nodetypes="cscsc"
         inkscape:connector-curvature="0"
         id="path4072"
         d="m 310.75,1008.7372 c 0.21207,-1.2564 0.0454,-3.4982 0.75,-4.75 2.46567,-4.38052 8.30626,-4.11253 8.5,-1.5 -0.10786,0.2157 -6.38077,1.8372 -7,2.25 -1.04311,0.6954 -1.72168,3.2452 -2.25,4 z"
         style="opacity:0.2;fill:#ffffff;fill-opacity:1;stroke:none" />
      <path
         style="opacity:0.2;fill:#ffffff;fill-opacity:1;stroke:none"
         d="m 307.33853,1027.311 c 0.22808,-1.6472 -0.512,-3.2195 -0.20283,-4.9775 1.18638,-6.746 12.09345,-8.2805 10.01645,-3.2166 -0.116,0.2828 -6.72786,2.4086 -7.39382,2.9498 -1.12183,0.9118 -1.85161,4.2548 -2.4198,5.2442 z"
         id="path4074"
         inkscape:connector-curvature="0"
         sodipodi:nodetypes="cscsc" />
      <path
         style="opacity:0.2;fill:#ffffff;fill-opacity:1;stroke:none"
         d="m 244.75,1025.9872 c -0.94354,-8.5061 4.63781,-5.625 11.625,-5.625 11.00617,0 22.20365,0.125 33.125,0.125 2.125,0 -4.25,0 -6.375,0 -4.40012,0 -8.42502,1.25 -12.875,1.25 -6.2087,0 -12.16805,0.5899 -18.625,0.125 -5.86201,-0.4221 -6.53155,8.5898 -6.875,4.125 z"
         id="path4076"
         inkscape:connector-curvature="0"
         sodipodi:nodetypes="csssssc" />
      <path
         style="opacity:0.2;fill:#ffffff;fill-opacity:1;stroke:none"
         d="m 432.25,1013.8622 c -0.0459,-7.3535 12.76645,-10.4416 18,-11.75 21.75983,-5.43997 -17.89119,29.1723 -18,11.75 z"
         id="path4080"
         inkscape:connector-curvature="0"
         sodipodi:nodetypes="sss" />
      <path
         sodipodi:nodetypes="csssscc"
         inkscape:connector-curvature="0"
         id="path4084"
         d="m 346.32143,1029.7523 c 1.16963,-6.2067 5.23649,-4.1044 10.32771,-4.1044 8.01966,0 16.17872,0.091 24.13657,0.091 1.54839,0 -3.09676,0 -4.64515,0 -3.20615,0 -6.1389,0.9121 -9.38138,0.9121 -4.52398,0 -8.86627,0.4304 -13.57113,0.091 -8.56331,0.3022 -6.26094,8.7926 -6.86662,3.0099 z"
         style="opacity:0.2;fill:#ffffff;fill-opacity:1;stroke:none" />
      <path
         sodipodi:nodetypes="csssssc"
         inkscape:connector-curvature="0"
         id="path4086"
         d="m 177.89286,1046.5586 c -0.94354,-8.5061 4.63781,-5.625 11.625,-5.625 11.00617,0 22.20365,0.125 33.125,0.125 2.125,0 -4.25,0 -6.375,0 -4.40012,0 -8.42502,1.25 -12.875,1.25 -6.2087,0 -12.16805,0.5899 -18.625,0.125 -5.86201,-0.422 -6.53155,8.5898 -6.875,4.125 z"
         style="opacity:0.2;fill:#ffffff;fill-opacity:1;stroke:none" />
    </g>
    <rect
       y="1018.6956"
       x="243"
       height="61.666668"
       width="50"
       id="rect4042"
       style="fill:#9a8041;fill-opacity:1;stroke:none"
       inkscape:export-filename="/Users/zar/Desktop/morse_on.png"
       inkscape:export-xdpi="125.58895"
       inkscape:export-ydpi="125.58895" />
    <rect
       style="fill:#9a8041;fill-opacity:1;stroke:none"
       id="rect4052"
       width="5.3333335"
       height="18.666664"
       x="343"
       y="1057.6956"
       inkscape:export-filename="/Users/zar/Desktop/morse_on.png"
       inkscape:export-xdpi="125.58895"
       inkscape:export-ydpi="125.58895" />
    <path
       sodipodi:nodetypes="ccccc"
       style="fill:#261915;fill-opacity:1;stroke:#000000;stroke-width:1px;stroke-linecap:butt;stroke-linejoin:miter;stroke-opacity:1"
       d="m 359,1056.6955 8.5,-0.1666 1.83333,4.1666 -11,-0.3333 z"
       id="path4054"
       inkscape:connector-curvature="0"
       inkscape:export-filename="/Users/zar/Desktop/morse_on.png"
       inkscape:export-xdpi="125.58895"
       inkscape:export-ydpi="125.58895" />
    <rect
       y="1059.0288"
       x="336"
       height="2.6666641"
       width="42.666668"
       id="rect4056"
       style="fill:#9a8041;fill-opacity:1;stroke:none"
       inkscape:export-filename="/Users/zar/Desktop/morse_on.png"
       inkscape:export-xdpi="125.58895"
       inkscape:export-ydpi="125.58895" />
    <g
       id="g4058"
       transform="matrix(-1,0,0,1,566.66667,722)"
       inkscape:export-filename="/Users/zar/Desktop/morse_on.png"
       inkscape:export-xdpi="125.58895"
       inkscape:export-ydpi="125.58895">
      <rect
         style="fill:#9a8041;fill-opacity:1;stroke:none"
         id="rect4060"
         width="5.3333335"
         height="18.666664"
         x="343"
         y="337.6955" />
      <rect
         y="339.02884"
         x="336"
         height="2.6666641"
         width="42.666668"
         id="rect4062"
         style="fill:#9a8041;fill-opacity:1;stroke:none" />
    </g>
    <path
       sodipodi:type="arc"
       style="fill:none;stroke:#261915;stroke-opacity:1"
       id="path4064"
       sodipodi:cx="273.66666"
       sodipodi:cy="327.02884"
       sodipodi:rx="15"
       sodipodi:ry="15"
       d="m 288.66666,327.02884 a 15,15 0 1 1 -30,0 15,15 0 1 1 30,0 z"
       transform="translate(-2.6666667,719.33333)"
       inkscape:export-filename="/Users/zar/Desktop/morse_on.png"
       inkscape:export-xdpi="125.58895"
       inkscape:export-ydpi="125.58895" />
    <path
       style="fill:none;stroke:#261915;stroke-width:1px;stroke-linecap:butt;stroke-linejoin:miter;stroke-opacity:1"
       d="m 242.88889,1045.9177 12.66666,0"
       id="path4066"
       inkscape:connector-curvature="0"
       inkscape:export-filename="/Users/zar/Desktop/morse_on.png"
       inkscape:export-xdpi="125.58895"
       inkscape:export-ydpi="125.58895" />
    <path
       style="opacity:0.2;fill:#ffffff;fill-opacity:1;stroke:none"
       d="m 181,1081.9468 c -1.70716,-7.5304 21.13723,-4.0846 58.24511,-4.5846 54.9029,-0.7398 110.77017,0.2796 165.25489,0.2796 10.60126,0 -21.20251,0 -31.80377,0 -21.95144,0 -42.78097,1.5466 -64.98115,1.5466 -30.97413,0 -83.52371,0.174 -115.6669,2.5297 -10.99455,0.8057 -11.33477,15.4677 -11.04818,0.2287 z"
       id="path4078"
       inkscape:connector-curvature="0"
       sodipodi:nodetypes="csssssc"
       inkscape:export-filename="/Users/zar/Desktop/morse_on.png"
       inkscape:export-xdpi="125.58895"
       inkscape:export-ydpi="125.58895" />
    <path
       sodipodi:nodetypes="cssc"
       inkscape:connector-curvature="0"
       id="path4082"
       d="m 257.85714,1046.7193 c -0.14469,-5.4674 1.93278,-7.8813 5,-10.9286 3.60211,-3.5786 14.21462,-2.2863 13,-2.0714 -9.69009,1.7143 -15.17227,5.0933 -18,13 z"
       style="opacity:0.2;fill:#ffffff;fill-opacity:1;stroke:none"
       inkscape:export-filename="/Users/zar/Desktop/morse_on.png"
       inkscape:export-xdpi="125.58895"
       inkscape:export-ydpi="125.58895" />
    <path
       inkscape:export-ydpi="125.58895"
       inkscape:export-xdpi="125.58895"
       inkscape:export-filename="/Users/zar/Desktop/morse_on.png"
       sodipodi:nodetypes="csssssc"
       inkscape:connector-curvature="0"
       id="path3219"
       d="m 244.75,1025.9872 c -0.94354,-8.5061 4.63781,-5.625 11.625,-5.625 11.00617,0 22.20365,0.125 33.125,0.125 2.125,0 -4.25,0 -6.375,0 -4.40012,0 -8.42502,1.25 -12.875,1.25 -6.2087,0 -12.16805,0.5899 -18.625,0.125 -5.86201,-0.4221 -6.53155,8.5898 -6.875,4.125 z"
       style="opacity:0.2;fill:#ffffff;fill-opacity:1;stroke:none" />
  </g>
</svg>
